<svg xmlns="http://www.w3.org/2000/svg" viewBox="0 0 512 512" width="512" height="512">
  <!-- Background -->
  <rect width="512" height="512" rx="128" fill="#3b82f6"/>

  <!-- Building Icon -->
  <g fill="#ffffff">
    <!-- Main building structure -->
    <rect x="140" y="140" width="232" height="272" rx="8"/>

    <!-- Windows - Row 1 -->
    <rect x="170" y="170" width="40" height="40" rx="4" fill="#3b82f6"/>
    <rect x="236" y="170" width="40" height="40" rx="4" fill="#3b82f6"/>
    <rect x="302" y="170" width="40" height="40" rx="4" fill="#3b82f6"/>

    <!-- Windows - Row 2 -->
    <rect x="170" y="230" width="40" height="40" rx="4" fill="#3b82f6"/>
    <rect x="236" y="230" width="40" height="40" rx="4" fill="#3b82f6"/>
    <rect x="302" y="230" width="40" height="40" rx="4" fill="#3b82f6"/>

    <!-- Windows - Row 3 -->
    <rect x="170" y="290" width="40" height="40" rx="4" fill="#3b82f6"/>
    <rect x="236" y="290" width="40" height="40" rx="4" fill="#3b82f6"/>
    <rect x="302" y="290" width="40" height="40" rx="4" fill="#3b82f6"/>

    <!-- Door -->
    <rect x="221" y="350" width="70" height="62" rx="4" fill="#3b82f6"/>

    <!-- Roof -->
    <path d="M 120 140 L 256 80 L 392 140 L 372 140 L 256 100 L 140 140 Z" fill="#ffffff" opacity="0.9"/>
  </g>
</svg>
